<svg xmlns="http://www.w3.org/2000/svg" width="1000" height="500" viewBox="0 0 1000 500">
  <metadata><?xpacket begin="﻿" id="W5M0MpCehiHzreSzNTczkc9d"?>
<x:xmpmeta xmlns:x="adobe:ns:meta/" x:xmptk="Adobe XMP Core 5.6-c142 79.160924, 2017/07/13-01:06:39        ">
   <rdf:RDF xmlns:rdf="http://www.w3.org/1999/02/22-rdf-syntax-ns#">
      <rdf:Description rdf:about=""/>
   </rdf:RDF>
</x:xmpmeta>
                                                                                                    
                                                                                                    
                                                                                                    
                                                                                                    
                                                                                                    
                                                                                                    
                                                                                                    
                                                                                                    
                                                                                                    
                                                                                                    
                                                                                                    
                                                                                                    
                                                                                                    
                                                                                                    
                                                                                                    
                                                                                                    
                                                                                                    
                                                                                                    
                                                                                                    
                                                                                                    
                           
<?xpacket end="w"?></metadata>
<defs>
    <style>
      .cls-1 {
        fill-rule: evenodd;
      }
    </style>
  </defs>
  <path id="Color_Fill_1" data-name="Color Fill 1" class="cls-1" d="M296.505,164.033v52.278H265.636V164.033h-40.42v142.15h40.42v-55.3h30.869v55.3h40.419V164.033H296.505Zm97.99,108.2V249.011h48.04V217.456H394.5V196.837h59.423v-32.8h-99.07v142.15h99.07V272.234H394.5Zm110.917-.937V164.033h-40.42v142.15H557.31V271.3h-51.9Zm101.463,0V164.033h-40.42v142.15h92.318V271.3h-51.9Zm161.272,16.662q17.458-20.411,17.46-54.257,0-32.7-17.316-52.278t-44.808-19.578q-29.713,0-46.449,20.776T660.3,235.264q0,33.327,17.508,53.216T723.1,308.37Q750.685,308.37,768.147,287.959ZM703.8,236.41q0-42.279,19.872-42.281,18.424,0,18.425,37.074,0,25.619-4.486,35.251T722.9,276.087q-19.1,0-19.1-39.677h0Z"/>
</svg>
